<?xml version="1.0" standalone="no"?>
<!DOCTYPE svg PUBLIC "-//W3C//DTD SVG 20010904//EN"
 "http://www.w3.org/TR/2001/REC-SVG-20010904/DTD/svg10.dtd">
<svg version="1.0" xmlns="http://www.w3.org/2000/svg"
 width="450.000000pt" height="450.000000pt" viewBox="0 0 450.000000 450.000000"
 preserveAspectRatio="xMidYMid meet">
<metadata>
Created by potrace 1.11, written by Peter Selinger 2001-2013
</metadata>
<g transform="translate(0.000000,450.000000) scale(0.100000,-0.100000)"
fill="#000000" stroke="none">
<path d="M3735 3816 l-30 -13 51 -6 c67 -9 148 -51 180 -93 l26 -33 37 18 c63
33 144 51 257 59 l109 8 -47 22 c-98 46 -188 39 -291 -25 -32 -19 -59 -33 -61
-32 -63 99 -144 132 -231 95z"/>
<path d="M2816 3689 c-326 -33 -612 -169 -854 -406 l-105 -103 94 -48 94 -49
76 72 c146 139 377 270 474 270 74 0 178 -53 214 -110 24 -38 28 -41 46 -29
46 31 144 46 276 42 140 -3 142 -2 54 45 -32 17 -57 22 -125 22 -79 0 -89 -2
-152 -37 l-66 -37 -12 30 c-7 16 -28 43 -46 59 -33 29 -50 36 -104 43 -38 5
67 26 182 37 572 55 1124 -340 1269 -909 50 -194 47 -408 -6 -611 -35 -132
-136 -332 -224 -441 -69 -86 -70 -87 -203 -153 -132 -65 -285 -123 -296 -111
-3 3 -50 254 -103 557 -63 356 -102 556 -112 565 -12 12 -25 13 -78 3 -74 -13
-140 -48 -171 -90 -11 -16 -27 -31 -34 -34 -7 -3 -35 17 -62 43 -33 32 -67 54
-98 64 -66 21 -126 29 -142 19 -8 -6 -48 -204 -107 -542 -52 -293 -96 -534
-98 -537 -2 -2 -45 17 -95 42 -280 140 -527 420 -593 672 -27 106 -27 270 0
368 11 38 18 71 16 74 -2 2 -30 -23 -62 -55 -103 -104 -161 -241 -170 -400
-13 -225 73 -423 266 -614 80 -79 220 -184 299 -224 19 -10 32 -20 29 -22 -8
-8 -186 84 -272 141 -231 154 -376 340 -420 540 -24 105 -17 267 14 345 104
258 255 398 481 446 74 16 218 15 265 -1 l20 -7 -20 17 c-26 23 -133 72 -220
102 -204 70 -445 70 -650 0 -137 -47 -240 -112 -359 -226 -174 -169 -258 -343
-287 -595 -13 -118 -2 -268 29 -393 10 -40 15 -70 11 -67 -16 10 -68 154 -84
233 -26 126 -17 317 20 431 116 361 389 628 727 710 323 78 734 -13 941 -208
36 -35 37 -36 37 -12 -1 40 -42 151 -80 214 -19 32 -71 93 -116 135 -103 100
-213 157 -375 196 -105 25 -125 27 -254 22 -199 -8 -372 -50 -525 -127 -156
-79 -332 -220 -451 -363 -52 -62 -58 -65 -33 -14 54 107 173 246 284 331 152
118 392 216 588 242 39 5 50 10 42 18 -7 7 -73 11 -193 11 -156 0 -195 -3
-271 -23 -282 -71 -523 -268 -659 -538 -39 -77 -95 -245 -119 -358 -28 -132
-30 -350 -5 -479 50 -251 163 -460 356 -660 332 -344 743 -540 1286 -613 159
-22 611 -25 780 -6 473 54 809 168 1095 370 142 100 320 282 413 422 124 188
222 413 264 610 25 120 26 440 0 557 -75 346 -272 659 -544 860 -159 118 -404
224 -593 257 -115 20 -286 27 -394 15z m314 -1537 c12 -73 19 -136 16 -139 -8
-8 -166 147 -166 161 0 16 113 127 121 118 3 -4 16 -67 29 -140z m-382 95 c58
-59 56 -77 -25 -167 -36 -41 -70 -76 -75 -78 -13 -6 -10 31 14 164 12 71 26
124 33 124 6 0 30 -19 53 -43z m243 -238 c49 -45 86 -85 83 -90 -6 -11 -348
-12 -358 -1 -8 7 162 171 177 172 5 0 49 -37 98 -81z m58 -223 c-24 -24 -146
-116 -154 -116 -8 0 -130 92 -154 116 -2 2 67 4 154 4 87 0 156 -2 154 -4z
m-341 -114 c51 -41 91 -78 90 -83 -4 -9 -270 -220 -274 -217 -2 3 26 163 61
356 7 39 1 41 123 -56z m526 -114 c19 -101 33 -184 32 -185 -4 -4 -275 212
-276 219 0 12 205 168 208 158 2 -5 18 -91 36 -192z m-145 -188 c162 -129 168
-135 143 -144 -15 -5 -119 -9 -232 -10 -158 -1 -231 3 -318 18 -62 10 -112 22
-110 26 2 5 71 63 153 129 105 85 157 120 172 118 13 -1 99 -63 192 -137z"/>
<path d="M2785 3214 c-107 -21 -138 -29 -190 -46 -33 -11 -64 -24 -70 -29 -5
-5 150 -9 364 -9 224 0 370 4 366 9 -8 14 -119 49 -209 66 -71 14 -212 18
-261 9z"/>
<path d="M2457 3113 c-13 -13 -7 -61 9 -67 24 -9 847 -7 862 3 8 5 12 21 10
37 l-3 29 -436 3 c-239 1 -439 -1 -442 -5z"/>
<path d="M3385 3051 c-16 -7 -10 -11 35 -25 59 -17 87 -36 114 -78 l17 -26 52
21 c40 15 76 20 160 20 59 0 107 2 107 4 0 1 -19 13 -42 25 -62 32 -149 30
-213 -5 -26 -15 -49 -27 -50 -27 -2 0 -13 15 -24 34 -33 53 -102 78 -156 57z"/>
<path d="M2496 3014 c-13 -13 -16 -46 -16 -209 0 -163 3 -196 16 -209 13 -14
63 -16 397 -16 210 0 388 4 395 9 11 6 14 53 14 216 0 163 -3 210 -14 216 -7
5 -185 9 -395 9 -334 0 -384 -2 -397 -16z"/>
<path d="M2447 2546 c-3 -8 -3 -24 0 -35 l5 -21 442 2 441 3 3 33 3 32 -444 0
c-373 0 -446 -2 -450 -14z"/>
<path d="M2550 2453 c125 -55 296 -80 437 -63 86 10 283 63 283 75 0 3 -170 5
-377 4 -350 -1 -375 -2 -343 -16z"/>
</g>
</svg>
